# xmcd
#
# Track frame offsets:
#	150
#	21339
#	40183
#	56951
#	79249
#	90438
#	117454
#	137563
#	154202
#	170327
#	187662
#	201516
#	236145
#	257115
#	280271
#	307096
#
# Disc length: 4434 seconds
#
# Revision: 1
# Processed by: cddbd v1.4PL0 Copyright (c) Steve Scherf et al.
# Submitted via: audiograbber 1.80
#
DISCID=e5115010
DTITLE=The Crew - Lp Recording
DYEAR=1900
DGENRE=
TTITLE0=Good Woman Go Bad
TTITLE1=Too Crowded In My Bed
TTITLE2=Step By Step
TTITLE3=Restless Heart
TTITLE4=On Your Trail
TTITLE5=Shine
TTITLE6=Watch Your Moves
TTITLE7=Sweet Man Of Mine
TTITLE8=Street Walking Woman
TTITLE9=Hurt So Good
TTITLE10=Ragin' Like A Cajun
TTITLE11=If I Had A Man
TTITLE12=Doin' Overtime
TTITLE13=The Breeze
TTITLE14=Struggle
TTITLE15=Sittin' Next To Sue
EXTD=
EXTT0=
EXTT1=
EXTT2=
EXTT3=
EXTT4=
EXTT5=
EXTT6=
EXTT7=
EXTT8=
EXTT9=
EXTT10=
EXTT11=
EXTT12=
EXTT13=
EXTT14=
EXTT15=
PLAYORDER=
